<svg width="1200" height="760" viewBox="0 0 1200 760" fill="none" xmlns="http://www.w3.org/2000/svg">
  <rect width="1200" height="760" fill="#EDE9E3"/>
  <rect x="90" y="70" width="1020" height="620" rx="26" fill="#F8F5F0"/>
  <rect x="150" y="130" width="900" height="500" rx="20" fill="#D6E0E3"/>
  <path d="M230 190V580" stroke="#FFFFFF" stroke-opacity="0.66" stroke-width="4"/>
  <path d="M360 190V580" stroke="#FFFFFF" stroke-opacity="0.58" stroke-width="3"/>
  <path d="M520 190V580" stroke="#FFFFFF" stroke-opacity="0.62" stroke-width="4"/>
  <path d="M710 190V580" stroke="#FFFFFF" stroke-opacity="0.54" stroke-width="3"/>
  <path d="M870 190V580" stroke="#FFFFFF" stroke-opacity="0.6" stroke-width="4"/>
  <path d="M300 210C314 244 330 272 338 310" stroke="#9BA6AA" stroke-width="8" stroke-linecap="round"/>
  <path d="M470 230C486 270 510 320 520 374" stroke="#97A4AA" stroke-width="9" stroke-linecap="round"/>
  <path d="M640 220C656 262 684 328 698 392" stroke="#9CA8AE" stroke-width="8" stroke-linecap="round"/>
  <path d="M820 240C838 280 862 338 876 398" stroke="#98A3AA" stroke-width="9" stroke-linecap="round"/>
  <circle cx="930" cy="520" r="84" fill="#D48B53" fill-opacity="0.35"/>
</svg>
